<?xml version="1.0" encoding="utf-8"?>
<!-- Generator: Adobe Illustrator 22.0.0, SVG Export Plug-In . SVG Version: 6.00 Build 0)  -->
<svg version="1.1" id="图层_1" xmlns="http://www.w3.org/2000/svg" xmlns:xlink="http://www.w3.org/1999/xlink" x="0px" y="0px"
	 viewBox="0 0 268 24" style="enable-background:new 0 0 268 24;" xml:space="preserve">
<style type="text/css">
	.st0{opacity:0;}
	.st1{fill:#008B46;}
	.st2{fill:#333333;}
</style>
<g>
	<g class="st0">
		<rect class="st1" width="268" height="24"/>
	</g>
	<g>
		<path class="st2" d="M9.7,6c0.4,0,0.8,0.4,1,1.1l-0.1,2.6c0.1,0.3,0.2,0.4,0.3,0.4c0,0,0.7,0,1.9-0.1c0.5,0.1,0.8,0.3,0.8,0.4v0.2
			c0,0.2-0.2,0.3-0.5,0.5c-0.6,0.2-1.4,0.3-2.4,0.3v3.2c0,0.1,0,0.2,0,0.5c0,0.2,0.1,0.3,0.2,0.3h4.3c0.8-0.1,1.3,0,1.3,0.3l0.3,0.8
			c-0.2,0.2-0.4,0.3-0.7,0.3c-0.2,0-1.8,0-4.8,0c-0.1,0-0.2,0-0.5,0c-0.2,0-2.1,0.1-5.5,0.4H5c-0.3,0-0.4-0.1-0.4-0.3v-0.1
			c0-0.4,1.4-0.7,4.1-0.9c0.5,0,0.9-0.1,1-0.1v-0.8L9.5,8c0-0.9-0.1-1.5-0.1-1.8L9.7,6z"/>
		<path class="st2" d="M26.5,6.8h0.8c0,0.1,0.1,0.3,0.2,0.6l-1.8,10.1h-0.3l-0.8-0.3L26.5,6.8z"/>
		<path class="st2" d="M39.9,6.7c0.5,0.2,0.8,0.5,0.8,0.8c-1.4,1.8-2.4,3.7-2.9,5.6c-0.5,1.9-1,3.4-1.3,4.5h-0.2
			c-0.5-0.2-0.7-0.5-0.7-1c1.5-4.9,2.8-8.1,3.9-9.5c-0.3,0.4-0.6,0.6-1,0.4c-1.1,0.1-2.1,0.2-3,0.2h-0.3c-0.3,0-0.4-0.1-0.4-0.4V7
			C35.4,6.8,37.1,6.7,39.9,6.7z"/>
		<path class="st2" d="M48.7,9.1c0,0.3,0.1,0.5,0.1,0.7V14c0.4,0,1-0.5,1.7-1.4v0.6l-2.2,3.3c-0.2,0-0.4-0.3-0.7-0.8
			c0.2-0.2,0.3-2,0.3-5.3c0.1-0.3-0.4-0.3-1.6-0.2l-0.1-0.7C46.5,9.4,47.3,9.2,48.7,9.1z M47.8,6.6H48c0.6,0,1.1,0.3,1.4,0.8v0.4
			h-0.3c-0.5,0-1-0.3-1.3-0.8V6.6z M58,6.1c0.3,0,0.5,0.2,0.6,0.5V7l-0.9,0.1l-1.9,0.2c-0.2,0-0.3,0.1-0.3,0.3
			c0.2,1,0.3,2.9,0.3,5.4v2.1c0,0.7-0.1,1.5-0.3,2.3h-0.3c-1.2-0.8-2.1-1.6-2.7-2.4v-0.3H53l1.6,0.8h0.1c0.2,0,0.3-0.1,0.3-0.3
			l0.1-1.9c0-0.8,0-1.7-0.1-2.8c0-2-0.2-3-0.6-3l-2.8,0.1c-0.2-0.2-0.4-0.3-0.5-0.3V7.2C51.1,7,53.4,6.6,58,6.1z"/>
		<path class="st2" d="M69.4,5.2h0.2c0.2,0,0.4,0.2,0.5,0.5V6l-2.5,1.4v0.1c0,0.3,0.2,0.4,0.6,0.4c0.6-0.4,1.2-0.6,1.8-0.6
			c0.5,0.1,0.8,0.5,0.8,1C70.6,9,70.5,9.6,70.5,10l0.2,0.1c0.5-0.3,1.5-1.9,3.1-4.6h0.2c0.1,0,0.4,0.2,0.7,0.6v0.2l-0.5,0.8
			c1,1,2.8,1.9,5.1,2.8v0.6h-0.8c-0.8,0-2.3-0.8-4.5-2.4l-0.5-0.3c-1.9,2.1-2.8,3.3-2.8,3.4v3.3c0,1.8-0.1,3.3-0.4,4.3
			c-0.5,0-1.3-0.5-2.3-1.6c1,0,1.5-0.5,1.5-1.4c0.1-0.7,0.2-1.5,0.2-2.6v-0.8c0-0.1-0.1-0.2-0.4-0.2c-1.2,0.1-1.8,0.3-1.9,0.4
			c-0.4,2.5-1.1,4-2,4.5h-0.2c0.4-1.1,0.8-2.4,1.2-4L66.3,13h-0.8l-1.5,0.3l-0.1-0.5v-0.1c0-0.2,0.9-0.5,2.6-1
			c0.2-0.9,0.3-1.5,0.3-1.9V9c0-0.3-0.1-0.8-0.2-1.4C66.6,7.4,67.5,6.5,69.4,5.2z M67.5,11.4h1c0.4,0,0.6-0.1,0.6-0.3L68.1,10V9.7
			c0.2,0,0.3-0.1,0.3-0.2c0.6,0.4,0.9,0.6,1.1,0.6l0.2-0.3c-0.1-0.5-0.2-0.9-0.2-1.3h-0.4c-1.1,0-1.6,0.9-1.6,2.6V11.4z M67.6,13.1
			h0.2c0.6,0,1.1,0.3,1.6,0.9c0,0.3-0.1,0.4-0.4,0.4c-0.6,0-1-0.3-1.4-1V13.1z M75.5,9.6c0.5,0.6,0.7,0.9,0.7,0.9
			c0,0.8-0.4,2.3-1.1,4.4h-0.2c-0.6,0-0.9-0.2-1.1-0.6v-0.6c0.8-0.1,1.1-0.8,1.1-2.1v-0.3l-0.1-0.8h-0.3c-0.2,0-1,0.1-2.4,0.4
			L72,10.5v-0.4C73.9,9.8,75,9.6,75.5,9.6z M72.6,11.6h0.1c0.2,0,0.3,0.1,0.3,0.3l-0.1,3.4v0.4c0.4,0.7,1.1,1,2.2,0.8l1.2-0.1
			c0.9-0.1,1.4-0.9,1.4-2.5h0.3c0.3,0.5,0.5,1.5,0.5,2.9c0,0.5-0.2,0.7-0.7,0.7c-3.1,0.4-4.9,0.2-5.4-0.6c-0.3-0.4-0.4-1-0.3-1.8
			C72.1,13.1,72.3,12,72.6,11.6z"/>
		<path class="st2" d="M85.6,8.2L85.6,8.2c0.4,0,0.6,0.4,0.8,1.3c0,0.9,0,3-0.1,6.4h-0.4c-0.4-0.2-0.7-0.5-0.8-0.9
			c0.2-0.8,0.3-1.7,0.3-2.8V11c0-0.2-0.1-0.4-0.2-0.6c0.1-0.1,0.2-0.3,0.2-0.6V9.2l-0.2-0.9L85.6,8.2z M93.7,8.7H94
			c0,0.1,0,0.3,0.1,0.5c-0.4,0.9-0.6,1.5-0.6,1.7l1.3,1.6V13h-0.3c-0.9-0.8-1.5-1.3-1.9-1.3c-1.4,0.9-2.5,1.4-3.2,1.4
			c0-0.4-0.3-0.6-0.8-0.6h-0.1L87,13.7h-0.6c0.8-1,1.4-1.9,1.7-2.7c0-0.1-0.3-0.6-1-1.4V9.2h0.5c0.5,0.6,0.8,0.9,0.9,0.9h0.1
			c0.1,0,0.5-0.4,1-1.2h0.2v0.3c-0.3,1.3-0.4,1.9-0.4,2v0.1c0,0.5,0.2,0.9,0.5,1c1.3-0.5,1.9-1.1,1.9-1.9c0-0.1-0.3-0.5-0.8-1.2V8.8
			h0.2c0.9,0.8,1.4,1.2,1.4,1.2C92.7,10,93.1,9.5,93.7,8.7z M92.5,5.9C95,6.1,96.3,6.8,96.3,8v1.8c0,0.4,0,0.9-0.1,1.6
			c0.2,0.4,0.3,1,0.3,1.6c0,3.3-0.4,5-1.1,5c-2.3-0.7-3.5-1.5-3.5-2.5c1.3,0.8,2.3,1.2,2.9,1.2h0.2c0.3,0,0.4-0.6,0.4-1.8v-3.7
			c0-2.5-0.2-3.8-0.6-3.8c-0.5-0.3-0.9-0.5-1.3-0.5c-1.6,0-3.4,0.3-5.4,0.8h-0.2c-0.2,0-0.3-0.1-0.3-0.3C87.6,7,89,6.6,92,5.9H92.5z
			"/>
		<path class="st2" d="M107,15.2c0.6-0.1,0.9,0.3,0.9,1.1c-0.1,0.8-0.8,1.6-2.1,2.4h-0.3l0.6-0.8c0.2-0.3,0.4-0.5,0.6-0.9
			c-0.4-0.1-0.6-0.4-0.6-0.9C106.2,15.5,106.5,15.2,107,15.2z"/>
		<path class="st2" d="M125.4,9.1c0,0.3,0.1,0.5,0.1,0.7V14c0.4,0,1-0.5,1.7-1.4v0.6l-2.2,3.3c-0.2,0-0.4-0.3-0.7-0.8
			c0.2-0.2,0.3-2,0.3-5.3c0.1-0.3-0.4-0.3-1.6-0.2l-0.1-0.7C123.1,9.4,123.9,9.2,125.4,9.1z M124.4,6.6h0.2c0.6,0,1.1,0.3,1.4,0.8
			v0.4h-0.3c-0.5,0-1-0.3-1.3-0.8V6.6z M134.6,6.1c0.3,0,0.5,0.2,0.6,0.5V7l-0.9,0.1l-1.9,0.2c-0.2,0-0.3,0.1-0.3,0.3
			c0.2,1,0.3,2.9,0.3,5.4v2.1c0,0.7-0.1,1.5-0.3,2.3h-0.3c-1.2-0.8-2.1-1.6-2.7-2.4v-0.3h0.4l1.6,0.8h0.1c0.2,0,0.3-0.1,0.3-0.3
			l0.1-1.9c0-0.8,0-1.7-0.1-2.8c0-2-0.2-3-0.6-3l-2.8,0.1c-0.2-0.2-0.4-0.3-0.5-0.3V7.2C127.7,7,130,6.6,134.6,6.1z"/>
		<path class="st2" d="M146,5.2h0.2c0.2,0,0.4,0.2,0.5,0.5V6l-2.5,1.4v0.1c0,0.3,0.2,0.4,0.6,0.4c0.6-0.4,1.2-0.6,1.8-0.6
			c0.5,0.1,0.8,0.5,0.8,1c-0.1,0.7-0.2,1.3-0.2,1.7l0.2,0.1c0.5-0.3,1.5-1.9,3.1-4.6h0.2c0.1,0,0.4,0.2,0.7,0.6v0.2l-0.5,0.8
			c1,1,2.8,1.9,5.1,2.8v0.6h-0.8c-0.8,0-2.3-0.8-4.5-2.4l-0.5-0.3c-1.9,2.1-2.8,3.3-2.8,3.4v3.3c0,1.8-0.1,3.3-0.4,4.3
			c-0.5,0-1.3-0.5-2.3-1.6c1,0,1.5-0.5,1.5-1.4c0.1-0.7,0.2-1.5,0.2-2.6v-0.8c0-0.1-0.1-0.2-0.4-0.2c-1.2,0.1-1.8,0.3-1.9,0.4
			c-0.4,2.5-1.1,4-2,4.5h-0.2c0.4-1.1,0.8-2.4,1.2-4l-0.2-0.2h-0.8l-1.5,0.3l-0.1-0.5v-0.1c0-0.2,0.9-0.5,2.6-1
			c0.2-0.9,0.3-1.5,0.3-1.9V9c0-0.3-0.1-0.8-0.2-1.4C143.2,7.4,144.1,6.5,146,5.2z M144.1,11.4h1c0.4,0,0.6-0.1,0.6-0.3l-0.9-1.1
			V9.7c0.2,0,0.3-0.1,0.3-0.2c0.6,0.4,0.9,0.6,1.1,0.6l0.2-0.3c-0.1-0.5-0.2-0.9-0.2-1.3h-0.4c-1.1,0-1.6,0.9-1.6,2.6V11.4z
			 M144.2,13.1h0.2c0.6,0,1.1,0.3,1.6,0.9c0,0.3-0.1,0.4-0.4,0.4c-0.6,0-1-0.3-1.4-1V13.1z M152.1,9.6c0.5,0.6,0.7,0.9,0.7,0.9
			c0,0.8-0.4,2.3-1.1,4.4h-0.2c-0.6,0-0.9-0.2-1.1-0.6v-0.6c0.8-0.1,1.1-0.8,1.1-2.1v-0.3l-0.1-0.8h-0.3c-0.2,0-1,0.1-2.4,0.4
			l-0.1-0.5v-0.4C150.5,9.8,151.7,9.6,152.1,9.6z M149.2,11.6h0.1c0.2,0,0.3,0.1,0.3,0.3l-0.1,3.4v0.4c0.4,0.7,1.1,1,2.2,0.8
			l1.2-0.1c0.9-0.1,1.4-0.9,1.4-2.5h0.3c0.3,0.5,0.5,1.5,0.5,2.9c0,0.5-0.2,0.7-0.7,0.7c-3.1,0.4-4.9,0.2-5.4-0.6
			c-0.3-0.4-0.4-1-0.3-1.8C148.8,13.1,148.9,12,149.2,11.6z"/>
		<path class="st2" d="M163.9,6.4c0.5,0.3,0.8,0.5,0.8,0.8v0.3c0,0.5-0.4,1.4-1.3,2.6v0.3c0,0.8,0.5,1.1,1.6,1.1l0.1,0.4
			c-1,0.5-1.6,0.9-1.6,0.9v0.8c0,0.2,0.1,0.3,0.2,0.3h0.9v0.2c-2.5,2.4-4.2,3.6-4.9,3.6l0.2-0.9c1.6-1.1,2.4-1.9,2.4-2.2
			c0.1-0.2,0.1-0.5,0.1-0.8v-3.2c0-0.2-0.2-0.3-0.5-0.4c-0.3,0.3-0.6,0.4-0.9,0.4c-0.3-0.4-0.4-1-0.4-1.6V7.7h0.4
			c0.5,1,0.9,1.5,1.1,1.5c0.8-0.4,1.3-0.7,1.3-0.9V7.7c0-0.2-0.1-0.3-0.3-0.3h-1.8V7.1C161.4,6.9,162.3,6.7,163.9,6.4z M160.8,11.4
			h0.3c0.3,0,0.6,0.6,0.7,1.8c0,1-0.2,1.7-0.6,1.9h-0.1l-0.3-0.1c0.1-1,0.1-1.8,0.1-2.3C160.9,12.6,160.8,12.2,160.8,11.4z
			 M169.8,5.5l0.5,0.7c-0.2,3.3-0.7,4.9-1.7,4.9c-0.9,0-1.4,0.1-1.4,0.4c0.7,1,1.3,1.4,1.8,1.4h0.1c0.7-0.5,1.3-1.1,1.9-1.8h0.1
			c0.2,0,0.3,0.2,0.4,0.6l-2.2,2c1.4,1.6,3.1,2.5,5.2,2.6l0.3,0.6c0,0.3-0.4,0.4-1.1,0.5c-1.3-0.1-2.8-1-4.5-2.6h-0.4
			c-0.6,1.2-1.5,2.4-2.8,3.6H166c-0.1,0-0.3-0.2-0.7-0.7l0.3-1.2l0.4-7.8L165.9,7c0-0.7,0.5-1,1.7-1C167.8,5.8,168.5,5.6,169.8,5.5z
			 M166.8,12.5c0,0.1-0.1,0.3-0.1,0.4c0,0.5-0.1,1.6-0.2,3.4h0.1c0.4-0.3,1.1-0.9,2.1-1.8v-0.4C167.8,13.1,167.2,12.5,166.8,12.5z
			 M166.7,7.1v0.6l0.1,0.8h0.3c1.5-0.3,2.3-0.5,2.3-0.7V7c0-0.1-0.1-0.3-0.4-0.5C167.4,6.7,166.7,6.9,166.7,7.1z M166.8,10.2
			c0,0.2,0.1,0.3,0.3,0.3c1.2-0.4,1.8-0.7,1.8-0.9V9.2c0-0.2-0.1-0.3-0.3-0.3C167.3,8.9,166.8,9.3,166.8,10.2z"/>
		<path class="st2" d="M187.6,4.5c0.2,0,0.5,0.3,0.9,0.8v0.3c-1,0.6-1.5,1-1.5,1.3c0.1,0,0.2,0.1,0.4,0.2l1.4-0.2
			c0.8,0,1.3,0.3,1.6,0.8c-0.9,3.3-2,4.6-3.4,4.1c-0.1,0.8,0.5,1.3,1.7,1.3c0.8,0,1.3-0.1,1.4-0.1c2,0.2,2.9,0.6,2.9,0.9
			c0,0.2-0.1,0.4-0.1,0.5h-0.3c-0.9-0.3-2.2-0.4-3.9-0.4c-0.6,0-1,0-1.3,0h-0.4l-0.3,0.1V16v1.3c0,0.5-0.1,1.3-0.2,2.5h-0.3
			c0-0.2-0.1-0.3-0.2-0.3l0.1-0.8c0,0-0.1-0.8-0.2-2.2c0-1.3-0.1-2-0.2-2.3c-0.8,0.1-2.3,0.4-4.5,0.9c-0.3-0.1-0.4-0.1-0.6-0.1v-0.3
			c0-0.3,1.8-0.7,5.3-1.3l-0.1-0.4v-0.8c0-0.1-0.1-0.2-0.2-0.2c-0.6,0.3-1.1,0.4-1.4,0.4H184c-0.2-1.5-0.4-2.9-0.7-4.4l0.9-0.2V7.6
			c0-0.3-0.1-0.8-0.4-1.5l0.3-0.3h0.4c0.3,1,0.6,1.6,0.7,1.6C185.9,7.4,186.7,6.5,187.6,4.5z M184.5,9v0.3h0.1
			c1.1,0,1.6-0.3,1.6-0.6V8.4c0-0.1-0.1-0.2-0.3-0.2h-0.2C184.9,8.6,184.5,8.8,184.5,9z M184.6,10.8v0.6h0.9
			c0.4-0.2,0.6-0.5,0.6-0.9v-0.1c0-0.2-0.2-0.3-0.6-0.4C185.2,10.2,184.9,10.5,184.6,10.8z M187,8.3v0.1l1.1,0.9v0.3l-0.9,0.1v1.1
			c0,0.1,0.1,0.2,0.2,0.2h0.4c0.8-1,1.3-2,1.3-2.8c-0.2-0.2-0.3-0.3-0.4-0.3C187.5,7.9,187,8,187,8.3z"/>
		<path class="st2" d="M207,5.3c0.2,0,0.4,0.1,0.6,0.1v0.6c0,0.3-0.6,0.4-1.8,0.6L206,7l1.6-0.1c0.3,0,0.8,0.2,1.6,0.7v0.8
			c-0.8,1.5-1.3,2.3-1.3,2.4c0.1,0.2,0.2,0.4,0.2,0.6c0,0.3-0.9,0.5-2.6,0.6c-0.5,0.9-0.8,1.6-1,2.1v0.1c1.8,1.2,4.4,2.4,7.9,3.6
			l-0.3,0.3c0,0.2-0.2,0.4-0.6,0.6c-1.5,0-4-1.2-7.5-3.5h-0.2c-0.5,1-1.7,1.8-3.6,2.4c-0.5,0-0.8-0.1-0.8-0.4
			c1.6-0.7,2.8-1.6,3.6-2.6c-1.3-1.2-2.3-1.8-3.1-1.9l0.1-0.7c1.1,0.2,1.7,0.2,1.8,0.2c-0.1-2.5-0.3-3.7-0.6-3.7
			c0.2-0.3,0.3-0.5,0.3-0.6h0.1c1.5-0.3,2.5-0.6,3.1-0.8c0-0.3-0.1-0.4-0.5-0.4c-0.2,0-0.7,0-1.5,0.1l-0.1-0.4
			C202.8,6.1,204.2,5.7,207,5.3z M202.6,8.9v0.4c0,0.1,0.1,0.2,0.4,0.2c1.3-0.2,2-0.4,2-0.8V8.5c0-0.2-0.1-0.3-0.3-0.3h-0.5
			C203.1,8.4,202.6,8.6,202.6,8.9z M202.7,12.6v0.3c0.2,0.2,0.5,0.4,0.9,0.7h0.1c0.1-0.2,0.3-0.4,0.4-0.7v-0.2
			c0.2-0.3,0.1-0.4-0.4-0.3L202.7,12.6z M203,10.5v0.6c0,0.2,0.1,0.3,0.2,0.3h0.8c0.1,0,0.4-0.2,0.7-0.6v-0.5c0-0.2-0.1-0.3-0.3-0.3
			h-0.2C203.5,10.4,203,10.5,203,10.5z M205.8,8.3l0.1,0.5c1-0.1,1.3,0,1.1,0.1l-0.1,0.6c-0.8,0.2-1.2,0.3-1.2,0.4l-0.1,0.9
			c0,0.1,0.1,0.2,0.2,0.2c1.1,0,1.8-0.8,2-2.5V8.4c0.1-0.4-0.1-0.6-0.6-0.6h-1.1C206,7.8,205.9,8,205.8,8.3z"/>
		<path class="st2" d="M224.2,5.1h0.4c0.1,0,0.4,0.2,0.7,0.6l-0.1,1.8l0.1,1.8h0.2c0.5-0.6,1-1.3,1.4-2l0.3,0.4
			c0.3,0,0.4,0.2,0.4,0.6c0,0.2-0.9,1.1-2.7,2.6l-0.2,0.2l0.6-0.1c1.4-0.2,2.4-0.3,3-0.3c0.7,0,0.9,2.3,0.6,6.9
			c-0.1,1-0.5,1.1-1,0.4l-4.6,0.3l-0.3-0.6v-4.4v-0.8l-0.1-0.2c-0.3,0.2-1.4,0.7-3.1,1.7l-0.6,0.1l0.4-0.6c1-0.6,2.7-1.8,5-3.6V9.7
			l-0.5-0.6V8.2C224.2,7.5,224.2,6.5,224.2,5.1z M222.9,6.8h0.2c0.2,0,0.3,0.1,0.3,0.4c0,0.8-0.7,1.5-2,2.1h-0.3V9L222.9,6.8z
			 M224,11.7L224,11.7v1.5c0.5,0,1.6-0.1,3.3-0.2l0.1,0.3c-0.8,0.7-1.9,1-3.4,1v0.8l2.9-0.4c0.5,0.2,0.7,0.5,0.7,0.7
			c-0.5,0.3-1.6,0.4-3.3,0.4l-0.4,0.1v1c0,0.2,0.1,0.3,0.3,0.4h2.4h0.9c0.1,0,0.2-0.1,0.2-0.2v-0.8c0.1-3,0-4.5-0.1-4.5h-1l-1.9,0.1
			c-0.4,0.1-0.6,0.1-0.7-0.1H224z M226.7,6.2c1.8,0.5,2.8,1,3,1.4V8c-2.4-0.5-3.6-1-3.6-1.5C226.2,6.3,226.4,6.2,226.7,6.2z"/>
		<path class="st2" d="M237.8,10.5h0.3c0.1,0.2,0.2,0.5,0.4,1l0.2,1.6l-0.1,1.3l-0.3,0.2c-0.1,0-0.3-0.3-0.5-0.8v-2.4L237.8,10.5z
			 M240.2,10.7c0.5,1.8,1.4,3.1,2.4,3.8l0.9,0.5c2.2,0,3.3-0.3,3.3-0.8c-0.5-0.7-0.8-1.3-0.8-1.8l0.2,0.1h0.2
			c1.2,0.7,1.9,1.5,2.2,2.4c-0.3,0.5-0.7,0.7-1.3,0.8c-1.1,0.3-2.2,0.4-3.3,0.3c-2.1-0.4-3.5-1.8-4.1-4.3c0-0.4-0.1-0.6-0.3-0.8
			L240.2,10.7z M242.1,7.2h0.5c0.5,0.2,1,0.5,1.3,1v0.5l-0.5,0.6c-0.8-1-1.3-1.6-1.3-1.8V7.2z M248.1,9.9h0.2c0.3,0,0.9,0.6,1.8,1.7
			v0.3c0,0.2-0.1,0.4-0.4,0.6l-0.5,0.3c0-0.5-0.4-1.2-1.1-2.3V9.9z"/>
		<path class="st2" d="M259.4,16.2c0.5,0.2,0.8,0.4,0.8,0.8c-0.2,0.5-0.5,0.8-0.9,0.8c-0.5-0.3-0.7-0.7-0.5-1.1l0.1-0.1
			C258.9,16.4,259,16.3,259.4,16.2z M260.1,5.9l0.4-0.2l0.4,0.2c-0.3,3.8-0.7,6.9-1.1,9.1h-0.8l0.1-1.1
			C259.5,10,259.8,7.3,260.1,5.9z"/>
	</g>
</g>
</svg>
