<?xml version="1.0" encoding="utf-8"?>
<!-- Generator: Adobe Illustrator 23.0.0, SVG Export Plug-In . SVG Version: 6.00 Build 0)  -->
<svg version="1.1" id="图层_1" xmlns="http://www.w3.org/2000/svg" xmlns:xlink="http://www.w3.org/1999/xlink" x="0px" y="0px"
	 viewBox="0 0 120 35" style="enable-background:new 0 0 120 35;" xml:space="preserve">
<style type="text/css">
	.st0{opacity:0;}
	.st1{fill:#FFFFFF;}
	.st2{fill:#1E74CF;}
	.st3{fill:#0ACDBB;}
	.st4{fill:#2273CB;}
	.st5{enable-background:new    ;}
</style>
<g>
	<g class="st0">
		<rect x="0.07" y="0" class="st1" width="120" height="35"/>
	</g>
	<g>
		<g>
			<polygon class="st2" points="15.46,10.54 5.78,10.54 8.96,0.76 18.64,0.76 			"/>
			<path class="st3" d="M25.04,34.29h9.68l7.78-23.8l0.69-2.06c1.22-3.81-1.59-7.72-5.61-7.72H21.81l-3.17,9.79h14.23L25.04,34.29z"
				/>
			<polygon class="st3" points="22.23,34.29 28.85,13.98 17.42,13.98 10.81,34.29 			"/>
			<path class="st2" d="M7.69,34.29l6.61-20.31H4.62L0.49,26.57c-1.22,3.81,1.59,7.72,5.61,7.72L7.69,34.29L7.69,34.29z"/>
		</g>
		<g>
			<path class="st4" d="M52.49,31.6c-0.11,0-0.21-0.05-0.32-0.11c-0.11-0.11-0.11-0.21-0.11-0.32v-0.21c0-0.11,0.05-0.21,0.11-0.32
				c0.11-0.11,0.21-0.11,0.32-0.11h0.69c0.05,0,0.05,0,0.05-0.05v-3.07c0-0.05,0-0.05-0.05-0.05h-0.53c-0.11,0-0.21-0.05-0.32-0.11
				c-0.11-0.11-0.11-0.16-0.11-0.26c0-0.11,0.05-0.21,0.11-0.32c0.05-0.11,0.16-0.16,0.26-0.16c0.21-0.05,0.42-0.11,0.58-0.21
				c0.32-0.16,0.58-0.21,0.79-0.21h0.11c0.11,0,0.21,0.05,0.32,0.11c0.11,0.11,0.11,0.21,0.11,0.32v4.02c0,0.05,0,0.05,0.05,0.05
				h0.53c0.11,0,0.21,0.05,0.32,0.11c0.11,0.11,0.11,0.21,0.11,0.32v0.21c0,0.11-0.05,0.21-0.11,0.32
				c-0.11,0.11-0.21,0.11-0.32,0.11L52.49,31.6L52.49,31.6z"/>
			<path class="st4" d="M63.23,31.17c0,0.11-0.05,0.21-0.16,0.32c-0.11,0.11-0.21,0.11-0.32,0.11h-0.48c-0.11,0-0.21-0.05-0.32-0.11
				c-0.05-0.05-0.11-0.16-0.11-0.26c0-0.63,0.16-1.38,0.42-2.17c0.21-0.58,0.53-1.22,0.95-1.85c0,0,0,0,0-0.05c0,0,0,0-0.05,0h-1.9
				c-0.11,0-0.21-0.05-0.32-0.11c-0.11-0.11-0.11-0.21-0.11-0.32v-0.26c0-0.11,0.05-0.21,0.11-0.32c0.11-0.11,0.21-0.11,0.32-0.11
				h2.96c0.11,0,0.21,0.05,0.26,0.11c0.05,0.11,0.11,0.16,0.11,0.26c0,0.26-0.11,0.53-0.26,0.74c-0.26,0.32-0.42,0.63-0.58,0.9
				c-0.16,0.26-0.26,0.58-0.37,0.95c-0.11,0.32-0.16,0.63-0.21,1.01S63.28,30.7,63.23,31.17"/>
			<path class="st4" d="M71.69,31.7c-0.53,0-0.95-0.21-1.27-0.58c-0.32-0.42-0.48-0.95-0.48-1.64c0-0.32,0.05-0.63,0.16-0.95
				c0.11-0.26,0.21-0.53,0.42-0.69c0.16-0.21,0.37-0.32,0.58-0.42s0.42-0.16,0.63-0.16c0.21,0,0.37,0.05,0.53,0.11
				c0.16,0.05,0.32,0.16,0.42,0.32l0,0l0,0l-0.05-0.58V26.1c0-0.11,0.05-0.21,0.11-0.32c0.11-0.11,0.21-0.11,0.32-0.11h0.48
				c0.11,0,0.21,0.05,0.32,0.11c0.11,0.11,0.11,0.21,0.11,0.32v5.13c0,0.11-0.05,0.21-0.11,0.32c-0.11,0.11-0.21,0.11-0.32,0.11
				h-0.26c-0.11,0-0.21-0.05-0.32-0.11c-0.11-0.05-0.16-0.16-0.16-0.26v-0.05l0,0l0,0c-0.16,0.16-0.32,0.26-0.53,0.37
				C72.06,31.65,71.85,31.7,71.69,31.7 M72.01,30.59c0.26,0,0.48-0.11,0.58-0.32c0-0.05,0.05-0.05,0.05-0.11v-1.59
				c0-0.05,0-0.05-0.05-0.11c-0.16-0.16-0.37-0.21-0.63-0.21c-0.21,0-0.37,0.11-0.53,0.26c-0.16,0.21-0.21,0.48-0.21,0.85
				C71.27,30.22,71.53,30.59,72.01,30.59"/>
			<path class="st4" d="M81.42,31.7c-0.63,0-1.11-0.21-1.53-0.58c-0.42-0.42-0.58-0.95-0.58-1.64c0-0.48,0.11-0.85,0.32-1.22
				c0.21-0.37,0.48-0.58,0.79-0.79c0.32-0.16,0.69-0.26,1.11-0.26c0.32,0,0.63,0.05,0.9,0.21c0.11,0.05,0.16,0.16,0.16,0.26v0.05
				c0,0.11-0.05,0.16-0.11,0.26l-0.11,0.16c-0.11,0.11-0.21,0.16-0.37,0.16c-0.05,0-0.16,0-0.26-0.05c-0.05,0-0.11,0-0.16,0
				c-0.26,0-0.53,0.11-0.69,0.32c-0.16,0.21-0.26,0.48-0.26,0.85c0,0.37,0.11,0.63,0.26,0.85c0.16,0.21,0.37,0.32,0.63,0.32
				c0.11,0,0.26-0.05,0.37-0.11c0.05-0.05,0.16-0.05,0.21-0.05s0.05,0,0.11,0c0.11,0,0.21,0.11,0.26,0.16l0.11,0.11
				c0.05,0.05,0.05,0.16,0.05,0.26c0,0.05,0,0.05,0,0.11c0,0.11-0.11,0.21-0.21,0.26C82.16,31.6,81.85,31.7,81.42,31.7"/>
			<path class="st4" d="M88.83,31.7c-0.21,0-0.42-0.05-0.58-0.21c-0.16-0.16-0.21-0.37-0.21-0.58c0-0.21,0.05-0.42,0.21-0.58
				s0.32-0.21,0.58-0.21c0.21,0,0.42,0.05,0.58,0.21c0.16,0.16,0.21,0.37,0.21,0.58c0,0.21-0.05,0.42-0.21,0.58
				C89.25,31.6,89.09,31.7,88.83,31.7"/>
			<path class="st4" d="M97.08,31.7c-0.63,0-1.11-0.21-1.53-0.58c-0.42-0.42-0.58-0.95-0.58-1.64c0-0.48,0.11-0.85,0.32-1.22
				c0.21-0.37,0.48-0.58,0.79-0.79c0.32-0.16,0.69-0.26,1.11-0.26c0.32,0,0.63,0.05,0.9,0.21c0.11,0.05,0.16,0.16,0.16,0.26v0.05
				c0,0.11-0.05,0.16-0.11,0.26l-0.11,0.16c-0.11,0.11-0.21,0.16-0.37,0.16c-0.05,0-0.16,0-0.26-0.05c-0.05,0-0.11,0-0.16,0
				c-0.26,0-0.53,0.11-0.69,0.32c-0.16,0.21-0.26,0.48-0.26,0.85c0,0.37,0.11,0.63,0.26,0.85c0.16,0.21,0.37,0.32,0.63,0.32
				c0.11,0,0.26-0.05,0.37-0.11c0.05-0.05,0.16-0.05,0.21-0.05c0.05,0,0.05,0,0.11,0c0.11,0,0.21,0.11,0.26,0.16l0.11,0.11
				c0.05,0.05,0.05,0.16,0.05,0.26c0,0.05,0,0.05,0,0.11c0,0.11-0.11,0.21-0.21,0.26C97.82,31.6,97.45,31.7,97.08,31.7"/>
			<path class="st4" d="M105.33,31.7c-0.26,0-0.53-0.05-0.79-0.16c-0.26-0.11-0.48-0.26-0.69-0.42c-0.21-0.21-0.37-0.42-0.48-0.69
				c-0.11-0.26-0.16-0.58-0.16-0.95c0-0.32,0.05-0.63,0.16-0.95c0.11-0.26,0.26-0.53,0.48-0.69c0.21-0.21,0.42-0.32,0.69-0.42
				s0.53-0.16,0.79-0.16c0.26,0,0.53,0.05,0.79,0.16s0.48,0.26,0.69,0.42c0.21,0.21,0.37,0.42,0.48,0.69
				c0.11,0.26,0.16,0.58,0.16,0.95c0,0.32-0.05,0.63-0.16,0.95c-0.11,0.26-0.26,0.53-0.48,0.69c-0.21,0.21-0.42,0.32-0.69,0.42
				C105.86,31.65,105.6,31.7,105.33,31.7 M105.33,30.59c0.26,0,0.42-0.11,0.53-0.32c0.11-0.21,0.16-0.48,0.16-0.85
				c0-0.37-0.05-0.63-0.16-0.85c-0.11-0.21-0.32-0.32-0.53-0.32c-0.26,0-0.42,0.11-0.53,0.32c-0.11,0.21-0.16,0.48-0.16,0.85
				c0,0.37,0.05,0.63,0.16,0.85C104.91,30.54,105.07,30.59,105.33,30.59"/>
			<path class="st4" d="M113.16,31.6c-0.11,0-0.21-0.05-0.32-0.11c-0.11-0.11-0.11-0.21-0.11-0.32v-3.39c0-0.11,0.05-0.21,0.11-0.32
				c0.11-0.11,0.21-0.11,0.32-0.11h0.21c0.11,0,0.21,0.05,0.32,0.11c0.11,0.11,0.16,0.16,0.16,0.32v0.11l0,0l0,0
				c0.21-0.21,0.42-0.37,0.58-0.48c0.21-0.11,0.42-0.16,0.69-0.16c0.53,0,0.9,0.21,1.16,0.63c0,0.05,0.05,0.05,0.05,0
				c0.21-0.21,0.42-0.37,0.63-0.48c0.21-0.11,0.42-0.16,0.69-0.16c0.42,0,0.79,0.16,1,0.48c0.21,0.32,0.32,0.74,0.32,1.27v2.22
				c0,0.11-0.05,0.21-0.11,0.32c-0.11,0.11-0.21,0.11-0.32,0.11h-0.48c-0.11,0-0.21-0.05-0.32-0.11c-0.11-0.11-0.11-0.21-0.11-0.32
				v-2.12c0-0.26-0.05-0.48-0.11-0.58c-0.05-0.11-0.21-0.16-0.37-0.16c-0.21,0-0.42,0.11-0.63,0.37c0,0-0.05,0.05-0.05,0.11v2.38
				c0,0.11-0.05,0.21-0.11,0.32c-0.11,0.11-0.21,0.11-0.32,0.11h-0.48c-0.11,0-0.21-0.05-0.32-0.11c-0.11-0.11-0.11-0.21-0.11-0.32
				v-2.12c0-0.26-0.05-0.48-0.11-0.58c-0.05-0.11-0.21-0.16-0.37-0.16c-0.21,0-0.42,0.11-0.63,0.37c0,0-0.05,0.05-0.05,0.11v2.38
				c0,0.11-0.05,0.21-0.11,0.32c-0.11,0.11-0.21,0.11-0.32,0.11h-0.42C113.16,31.65,113.16,31.6,113.16,31.6z"/>
			<g class="st5">
				<path class="st2" d="M61.22,22.08H57.2V9.33c-1.59,1.11-3.49,1.85-5.77,2.17l-0.32-3.12c2.8-1.16,5.03-2.12,6.14-4.44h4.02
					v18.14L61.22,22.08L61.22,22.08z"/>
				<path class="st2" d="M71.06,22.08H67.3c0.53-5.08,2.33-10.16,6.03-15.29h-9.31V4.2h13.33v2.59
					C73.49,12.13,71.37,17.21,71.06,22.08z"/>
				<path class="st2" d="M84.33,18c1-0.53,1.59-0.69,2.33-1.06l0.37,3.02c-1.69,1.32-4.02,2.06-6.29,2.64V11.87h-1.59V9.22
					l5.18,0.16V18z M83.27,3.46c0.26,1.43,1.06,2.75,1.38,4.34H81c-0.26-1.38-1-2.54-1-4.34H83.27z M98.46,6.84h-3.12v12.59
					c0,2.01-1.06,3.02-3.12,3.02h-3.28l-0.05-2.43h1.59c0.69,0.05,1-0.11,0.95-0.85V6.84h-5.13V4.3h12.06v2.54L98.46,6.84
					L98.46,6.84z"/>
				<path class="st2" d="M106.18,4.83c-0.11-0.42,0.05-0.9,0.26-1.43h-2.86c-0.42,0.21-0.48,1.43-0.48,1.43h-1.85v6.88h-0.85v2.17
					h0.85v2.17c-0.16,3.76-0.11,4.71-1.11,4.55l0.11,2.12c3.07,0,3.91-3.49,3.7-6.98v-0.26c0.16,0.79,0.26,1.64,0.32,2.59h1.75v1.43
					c0.05,0.69-0.21,1.01-0.74,0.9h-0.69v2.12h1.59c1.75,0.05,2.59-0.79,2.54-2.54V4.78h-2.54L106.18,4.83L106.18,4.83z
					 M106.13,17.31c-0.05-0.74-0.21-1.59-0.53-2.54h-1.59v-0.9h2.12V17.31z M106.13,11.71h-2.12V8.43c0.16,0.95,0.26,1.64,0.26,2.01
					c0.05,0.16,0.11,0.32,0.11,0.42h1.69c-0.05-1.16-0.21-2.22-0.53-3.12h-1.53V7h2.12L106.13,11.71L106.13,11.71z"/>
				<path class="st2" d="M119.93,8.9v2.27c-0.26-0.11-1.01-0.42-1.01-0.42l-0.58-0.26l-0.9-0.58c-1.22-0.74-2.27-1.75-3.12-3.02
					c-0.74,1.27-1.64,2.27-2.75,3.02l-1.8,0.95c-0.37,0.21-0.53,0.26-0.85,0.32V8.9c1.69-1.32,2.91-3.23,3.7-5.61h3.44
					C116.86,5.52,118.19,7.42,119.93,8.9z"/>
			</g>
			<path class="st2" d="M119.51,18.37v1.27c0.05,1.9-0.85,2.8-2.7,2.75h-4.34c-1.9,0.05-2.8-0.95-2.75-3.02v-7.72v-0.58h8.99v0.32
				v3.28c0.11,2.22-0.85,3.44-3.07,3.33h-1.59l-0.11-2.54l0.69,0.05c0.69,0.05,1.01-0.26,0.9-1.01v-1.43h-2.43v5.98
				c-0.05,0.85,0.26,1.22,1,1.16h1.69c0.69,0.05,0.95-0.26,0.9-1.01l-0.16-0.85H119.51z"/>
		</g>
	</g>
</g>
</svg>
