<?xml version="1.0" encoding="utf-8"?>
<!-- Generator: Adobe Illustrator 23.0.0, SVG Export Plug-In . SVG Version: 6.00 Build 0)  -->
<svg version="1.1" id="图层_1" xmlns="http://www.w3.org/2000/svg" xmlns:xlink="http://www.w3.org/1999/xlink" x="0px" y="0px"
	 viewBox="0 0 167 52" style="enable-background:new 0 0 167 52;" xml:space="preserve">
<style type="text/css">
	.st0{opacity:0;fill:#E80707;}
	.st1{fill:#FFFFFF;}
	.st2{enable-background:new    ;}
</style>
<g>
	<rect x="0.01" class="st0" width="167" height="52"/>
	<g>
		<g>
			<polygon class="st1" points="21.3,16.3 7.8,16.3 12.23,2.65 25.73,2.65 			"/>
			<path class="st1" d="M34.65,49.42h13.5L59,16.23l0.96-2.88c1.7-5.31-2.21-10.77-7.82-10.77H30.15l-4.43,13.65h19.84L34.65,49.42z
				"/>
			<polygon class="st1" points="30.74,49.42 39.97,21.09 24.03,21.09 14.81,49.42 			"/>
			<path class="st1" d="M10.46,49.42l9.22-28.33H6.18L0.43,38.65c-1.7,5.31,2.21,10.77,7.82,10.77L10.46,49.42L10.46,49.42z"/>
		</g>
		<g>
			<path class="st1" d="M72.94,45.66c-0.15,0-0.3-0.07-0.44-0.15c-0.15-0.15-0.15-0.3-0.15-0.44v-0.3c0-0.15,0.07-0.3,0.15-0.44
				c0.15-0.15,0.3-0.15,0.44-0.15h0.96c0.07,0,0.07,0,0.07-0.07v-4.28c0-0.07,0-0.07-0.07-0.07h-0.74c-0.15,0-0.3-0.07-0.44-0.15
				c-0.15-0.15-0.15-0.22-0.15-0.37s0.07-0.3,0.15-0.44c0.07-0.15,0.22-0.22,0.37-0.22c0.3-0.07,0.59-0.15,0.81-0.3
				c0.44-0.22,0.81-0.3,1.11-0.3h0.15c0.15,0,0.3,0.07,0.44,0.15c0.15,0.15,0.15,0.3,0.15,0.44v5.61c0,0.07,0,0.07,0.07,0.07h0.74
				c0.15,0,0.3,0.07,0.44,0.15c0.15,0.15,0.15,0.3,0.15,0.44v0.3c0,0.15-0.07,0.3-0.15,0.44c-0.15,0.15-0.3,0.15-0.44,0.15
				L72.94,45.66L72.94,45.66z"/>
			<path class="st1" d="M87.91,45.07c0,0.15-0.07,0.3-0.22,0.44c-0.15,0.15-0.3,0.15-0.44,0.15h-0.66c-0.15,0-0.3-0.07-0.44-0.15
				C86.07,45.44,86,45.29,86,45.14c0-0.89,0.22-1.92,0.59-3.02c0.3-0.81,0.74-1.7,1.33-2.58c0,0,0,0,0-0.07c0,0,0,0-0.07,0h-2.66
				c-0.15,0-0.3-0.07-0.44-0.15c-0.15-0.15-0.15-0.3-0.15-0.44V38.5c0-0.15,0.07-0.3,0.15-0.44c0.15-0.15,0.3-0.15,0.44-0.15h4.13
				c0.15,0,0.3,0.07,0.37,0.15c0.07,0.15,0.15,0.22,0.15,0.37c0,0.37-0.15,0.74-0.37,1.03c-0.37,0.44-0.59,0.89-0.81,1.25
				c-0.22,0.37-0.37,0.81-0.52,1.33c-0.15,0.44-0.22,0.89-0.3,1.4C87.77,43.96,87.99,44.4,87.91,45.07"/>
			<path class="st1" d="M99.72,45.81c-0.74,0-1.33-0.3-1.77-0.81c-0.44-0.59-0.66-1.33-0.66-2.29c0-0.44,0.07-0.89,0.22-1.33
				c0.15-0.37,0.3-0.74,0.59-0.96c0.22-0.3,0.52-0.44,0.81-0.59s0.59-0.22,0.89-0.22c0.3,0,0.52,0.07,0.74,0.15
				c0.22,0.07,0.44,0.22,0.59,0.44l0,0l0,0l-0.07-0.81v-1.4c0-0.15,0.07-0.3,0.15-0.44c0.15-0.15,0.3-0.15,0.44-0.15h0.66
				c0.15,0,0.3,0.07,0.44,0.15c0.15,0.15,0.15,0.3,0.15,0.44v7.16c0,0.15-0.07,0.3-0.15,0.44c-0.15,0.15-0.3,0.15-0.44,0.15h-0.37
				c-0.15,0-0.3-0.07-0.44-0.15c-0.15-0.07-0.22-0.22-0.22-0.37v-0.07l0,0l0,0c-0.22,0.22-0.44,0.37-0.74,0.52
				C100.23,45.73,99.94,45.81,99.72,45.81 M100.16,44.26c0.37,0,0.66-0.15,0.81-0.44c0-0.07,0.07-0.07,0.07-0.15v-2.21
				c0-0.07,0-0.07-0.07-0.15c-0.22-0.22-0.52-0.3-0.89-0.3c-0.3,0-0.52,0.15-0.74,0.37c-0.22,0.3-0.3,0.66-0.3,1.18
				C99.13,43.74,99.49,44.26,100.16,44.26"/>
			<path class="st1" d="M113.29,45.81c-0.89,0-1.55-0.3-2.14-0.81c-0.59-0.59-0.81-1.33-0.81-2.29c0-0.66,0.15-1.18,0.44-1.7
				c0.3-0.52,0.66-0.81,1.11-1.11c0.44-0.22,0.96-0.37,1.55-0.37c0.44,0,0.89,0.07,1.25,0.3c0.15,0.07,0.22,0.22,0.22,0.37v0.07
				c0,0.15-0.07,0.22-0.15,0.37l-0.15,0.22c-0.15,0.15-0.3,0.22-0.52,0.22c-0.07,0-0.22,0-0.37-0.07c-0.07,0-0.15,0-0.22,0
				c-0.37,0-0.74,0.15-0.96,0.44c-0.22,0.3-0.37,0.66-0.37,1.18c0,0.52,0.15,0.89,0.37,1.18c0.22,0.3,0.52,0.44,0.89,0.44
				c0.15,0,0.37-0.07,0.52-0.15c0.07-0.07,0.22-0.07,0.3-0.07c0.07,0,0.07,0,0.15,0c0.15,0,0.3,0.15,0.37,0.22l0.15,0.15
				c0.07,0.07,0.07,0.22,0.07,0.37c0,0.07,0,0.07,0,0.15c0,0.15-0.15,0.3-0.3,0.37C114.32,45.66,113.88,45.81,113.29,45.81"/>
			<path class="st1" d="M123.62,45.81c-0.3,0-0.59-0.07-0.81-0.3c-0.22-0.22-0.3-0.52-0.3-0.81c0-0.3,0.07-0.59,0.3-0.81
				c0.22-0.22,0.44-0.3,0.81-0.3c0.3,0,0.59,0.07,0.81,0.3c0.22,0.22,0.3,0.52,0.3,0.81c0,0.3-0.07,0.59-0.3,0.81
				C124.21,45.66,123.99,45.81,123.62,45.81"/>
			<path class="st1" d="M135.12,45.81c-0.89,0-1.55-0.3-2.14-0.81c-0.59-0.59-0.81-1.33-0.81-2.29c0-0.66,0.15-1.18,0.44-1.7
				c0.3-0.52,0.66-0.81,1.11-1.11c0.44-0.22,0.96-0.37,1.55-0.37c0.44,0,0.89,0.07,1.25,0.3c0.15,0.07,0.22,0.22,0.22,0.37v0.07
				c0,0.15-0.07,0.22-0.15,0.37l-0.15,0.22c-0.15,0.15-0.3,0.22-0.52,0.22c-0.07,0-0.22,0-0.37-0.07c-0.07,0-0.15,0-0.22,0
				c-0.37,0-0.74,0.15-0.96,0.44c-0.22,0.3-0.37,0.66-0.37,1.18c0,0.52,0.15,0.89,0.37,1.18c0.22,0.3,0.52,0.44,0.89,0.44
				c0.15,0,0.37-0.07,0.52-0.15c0.07-0.07,0.22-0.07,0.3-0.07c0.07,0,0.07,0,0.15,0c0.15,0,0.3,0.15,0.37,0.22l0.15,0.15
				c0.07,0.07,0.07,0.22,0.07,0.37c0,0.07,0,0.07,0,0.15c0,0.15-0.15,0.3-0.3,0.37C136.16,45.66,135.64,45.81,135.12,45.81"/>
			<path class="st1" d="M146.63,45.81c-0.37,0-0.74-0.07-1.11-0.22s-0.66-0.37-0.96-0.59c-0.3-0.3-0.52-0.59-0.66-0.96
				c-0.15-0.37-0.22-0.81-0.22-1.33c0-0.44,0.07-0.89,0.22-1.33c0.15-0.37,0.37-0.74,0.66-0.96c0.3-0.3,0.59-0.44,0.96-0.59
				s0.74-0.22,1.11-0.22c0.37,0,0.74,0.07,1.11,0.22s0.66,0.37,0.96,0.59c0.3,0.3,0.52,0.59,0.66,0.96s0.22,0.81,0.22,1.33
				c0,0.44-0.07,0.89-0.22,1.33c-0.15,0.37-0.37,0.74-0.66,0.96c-0.3,0.3-0.59,0.44-0.96,0.59S147,45.81,146.63,45.81 M146.63,44.26
				c0.37,0,0.59-0.15,0.74-0.44c0.15-0.3,0.22-0.66,0.22-1.18c0-0.52-0.07-0.89-0.22-1.18c-0.15-0.3-0.44-0.44-0.74-0.44
				c-0.37,0-0.59,0.15-0.74,0.44c-0.15,0.3-0.22,0.66-0.22,1.18c0,0.52,0.07,0.89,0.22,1.18C146.04,44.18,146.26,44.26,146.63,44.26
				"/>
			<path class="st1" d="M157.55,45.66c-0.15,0-0.3-0.07-0.44-0.15c-0.15-0.15-0.15-0.3-0.15-0.44v-4.72c0-0.15,0.07-0.3,0.15-0.44
				c0.15-0.15,0.3-0.15,0.44-0.15h0.3c0.15,0,0.3,0.07,0.44,0.15c0.15,0.15,0.22,0.22,0.22,0.44v0.15l0,0l0,0
				c0.3-0.3,0.59-0.52,0.81-0.66c0.3-0.15,0.59-0.22,0.96-0.22c0.74,0,1.25,0.3,1.62,0.89c0,0.07,0.07,0.07,0.07,0
				c0.3-0.3,0.59-0.52,0.89-0.66c0.3-0.15,0.59-0.22,0.96-0.22c0.59,0,1.11,0.22,1.4,0.66c0.3,0.44,0.44,1.03,0.44,1.77v3.1
				c0,0.15-0.07,0.3-0.15,0.44c-0.15,0.15-0.3,0.15-0.44,0.15h-0.66c-0.15,0-0.3-0.07-0.44-0.15c-0.15-0.15-0.15-0.3-0.15-0.44
				v-2.95c0-0.37-0.07-0.66-0.15-0.81c-0.07-0.15-0.3-0.22-0.52-0.22c-0.3,0-0.59,0.15-0.89,0.52c0,0-0.07,0.07-0.07,0.15v3.32
				c0,0.15-0.07,0.3-0.15,0.44c-0.15,0.15-0.3,0.15-0.44,0.15h-0.66c-0.15,0-0.3-0.07-0.44-0.15c-0.15-0.15-0.15-0.3-0.15-0.44
				v-2.95c0-0.37-0.07-0.66-0.15-0.81c-0.07-0.15-0.3-0.22-0.52-0.22c-0.3,0-0.59,0.15-0.89,0.52c0,0-0.07,0.07-0.07,0.15v3.32
				c0,0.15-0.07,0.3-0.15,0.44c-0.15,0.15-0.3,0.15-0.44,0.15h-0.59C157.55,45.73,157.55,45.66,157.55,45.66z"/>
			<g class="st2">
				<path class="st1" d="M85.11,32.38H79.5V14.6c-2.21,1.55-4.87,2.58-8.04,3.02l-0.44-4.35c3.91-1.62,7.01-2.95,8.56-6.2h5.61v25.3
					L85.11,32.38L85.11,32.38z"/>
				<path class="st1" d="M98.83,32.38h-5.24c0.74-7.08,3.25-14.16,8.41-21.32H89.02V7.45h18.59v3.61
					C102.22,18.51,99.27,25.59,98.83,32.38z"/>
				<path class="st1" d="M117.35,26.7c1.4-0.74,2.21-0.96,3.25-1.48l0.52,4.2c-2.36,1.84-5.61,2.88-8.78,3.69V18.14h-2.21v-3.69
					l7.23,0.22V26.7z M115.87,6.42c0.37,1.99,1.48,3.84,1.92,6.05h-5.09c-0.37-1.92-1.4-3.54-1.4-6.05H115.87z M137.04,11.14h-4.35
					v17.56c0,2.8-1.48,4.2-4.35,4.2h-4.57l-0.07-3.39h2.21c0.96,0.07,1.4-0.15,1.33-1.18V11.14h-7.16V7.6h16.82v3.54L137.04,11.14
					L137.04,11.14z"/>
				<path class="st1" d="M147.81,8.33c-0.15-0.59,0.07-1.25,0.37-1.99h-3.98c-0.59,0.3-0.66,1.99-0.66,1.99h-2.58v9.59h-1.18v3.02
					h1.18v3.02c-0.22,5.24-0.15,6.57-1.55,6.34l0.15,2.95c4.28,0,5.46-4.87,5.16-9.74v-0.37c0.22,1.11,0.37,2.29,0.44,3.61h2.43
					v1.99c0.07,0.96-0.3,1.4-1.03,1.25h-0.96v2.95h2.21c2.43,0.07,3.61-1.11,3.54-3.54V8.26h-3.54L147.81,8.33L147.81,8.33z
					 M147.74,25.74c-0.07-1.03-0.3-2.21-0.74-3.54h-2.21v-1.25h2.95V25.74z M147.74,17.92h-2.95v-4.57c0.22,1.33,0.37,2.29,0.37,2.8
					c0.07,0.22,0.15,0.44,0.15,0.59h2.36c-0.07-1.62-0.3-3.1-0.74-4.35h-2.14v-1.03h2.95L147.74,17.92L147.74,17.92z"/>
				<path class="st1" d="M166.99,14.01v3.17c-0.37-0.15-1.4-0.59-1.4-0.59l-0.81-0.37l-1.25-0.81c-1.7-1.03-3.17-2.43-4.35-4.2
					c-1.03,1.77-2.29,3.17-3.84,4.2l-2.51,1.33c-0.52,0.3-0.74,0.37-1.18,0.44v-3.17c2.36-1.84,4.06-4.5,5.16-7.82h4.79
					C162.71,9.29,164.56,11.95,166.99,14.01z"/>
			</g>
			<path class="st1" d="M166.4,27.22v1.77c0.07,2.66-1.18,3.91-3.76,3.84h-6.05c-2.66,0.07-3.91-1.33-3.84-4.2V17.85v-0.81h12.54
				v0.44v4.57c0.15,3.1-1.18,4.79-4.28,4.65h-2.21l-0.15-3.54l0.96,0.07c0.96,0.07,1.4-0.37,1.25-1.4v-1.99h-3.39v8.34
				c-0.07,1.18,0.37,1.7,1.4,1.62h2.36c0.96,0.07,1.33-0.37,1.25-1.4l-0.22-1.18H166.4z"/>
		</g>
	</g>
</g>
</svg>
