<?xml version="1.0" encoding="utf-8"?>
<!-- Generator: Adobe Illustrator 24.1.1, SVG Export Plug-In . SVG Version: 6.00 Build 0)  -->
<svg version="1.1" id="图层_1" xmlns="http://www.w3.org/2000/svg" xmlns:xlink="http://www.w3.org/1999/xlink" x="0px" y="0px"
	 viewBox="0 0 240 70" style="enable-background:new 0 0 240 70;" xml:space="preserve">
<style type="text/css">
	.st0{fill:#2273CB;}
	.st1{fill:#1E74CF;}
	.st2{fill:#0ACDBB;}
</style>
<g>
	<g>
		<path class="st0" d="M103.3,46.7c-0.6,0-1.1-0.2-1.6-0.6c-0.4-0.4-0.7-1-0.7-1.6c0-0.6,0.2-1.2,0.7-1.6c0.4-0.4,1-0.6,1.6-0.6h4.5
			c0.2,0,0.4-0.1,0.4-0.4V19.3c0-0.2-0.1-0.3-0.4-0.3H104c-0.5,0-0.9-0.2-1.2-0.5c-0.3-0.3-0.5-0.8-0.5-1.2c0-0.5,0.2-0.9,0.5-1.3
			c0.3-0.4,0.7-0.6,1.2-0.7c1.3-0.3,2.6-0.8,3.7-1.3c1.3-0.7,2.6-1,3.8-1c0.6,0,1,0.2,1.4,0.6c0.4,0.4,0.6,0.9,0.6,1.4v27
			c0,0.2,0.1,0.4,0.3,0.4h3.7c0.6,0,1.1,0.2,1.6,0.6c0.4,0.4,0.7,1,0.7,1.6c0,0.6-0.2,1.2-0.7,1.6c-0.4,0.4-1,0.6-1.6,0.6H103.3z"/>
		<path class="st0" d="M135.2,44c0,0.8-0.3,1.4-0.9,1.9c-0.5,0.5-1.2,0.8-1.9,0.8h-0.3c-0.7,0-1.4-0.3-1.9-0.8
			c-0.5-0.5-0.7-1.1-0.7-1.7c0-4.2,0.8-8.9,2.3-14.2c1.1-3.9,2.9-8,5.2-12.3c0-0.1,0-0.2,0-0.2c0-0.1-0.1-0.1-0.2-0.1h-10.4
			c-0.6,0-1.2-0.2-1.6-0.7c-0.4-0.4-0.7-1-0.7-1.6c0-0.6,0.2-1.2,0.7-1.6c0.4-0.4,1-0.7,1.6-0.7h14.8c0.5,0,0.9,0.2,1.2,0.5
			c0.3,0.3,0.5,0.7,0.5,1.2c0,1.1-0.3,2.1-0.9,3.1c-2.4,4.1-4.1,8.1-5.2,12.1C136,33.8,135.4,38.5,135.2,44z"/>
		<path class="st0" d="M158.3,40.8c0,0.6,0,0.9,0.1,1c0.1,0,0.4-0.1,0.9-0.4c0.3-0.2,0.7-0.4,1.1-0.7c0.4-0.3,0.8-0.6,1.2-0.9
			c0.4-0.3,0.8-0.6,1.2-1c0.4-0.3,0.8-0.6,1.1-0.9c0.4-0.3,0.7-0.3,1.1,0.1c0.3,0.3,0.6,0.8,0.8,1.4c0.2,0.6,0.3,1.2,0.3,1.8
			c0,0.6-0.2,1.1-0.6,1.4c-1.6,1.2-3,2.2-4.2,3c-1.2,0.8-2,1.3-2.6,1.6c-3.4,1.8-5,0.8-5-2.9V29.7c0-0.6,0-0.9-0.1-1
			c-0.1-0.1-0.4-0.1-1-0.1h-4.2c-0.4,0-0.8-0.2-1-0.7c-0.2-0.5-0.4-1-0.4-1.6s0.1-1.1,0.4-1.6c0.2-0.5,0.6-0.7,1-0.7h5.4
			c0.9,0,1.7,0.1,2.3,0.2c0.6,0.1,1.1,0.4,1.4,0.7c0.3,0.3,0.6,0.8,0.7,1.4c0.1,0.6,0.2,1.3,0.2,2.3V40.8z M156.4,20.8
			c-0.4-0.6-0.8-1.3-1.3-2c-0.5-0.7-1-1.4-1.5-2.1c-0.5-0.7-1-1.4-1.6-2c-0.5-0.7-1-1.3-1.5-1.8c-0.3-0.3-0.3-0.7-0.1-1.2
			c0.2-0.5,0.6-0.8,1-1.2c0.5-0.3,0.9-0.5,1.5-0.7c0.5-0.1,0.9,0,1.2,0.4c0.5,0.5,1,1.1,1.5,1.8c0.5,0.6,1.1,1.3,1.6,2
			c0.5,0.7,1,1.4,1.5,2c0.5,0.7,0.9,1.3,1.3,1.9c0.3,0.4,0.2,0.8,0,1.3c-0.3,0.5-0.6,0.9-1.1,1.3c-0.5,0.4-1,0.6-1.5,0.7
			C157.1,21.3,156.7,21.2,156.4,20.8z M170.6,46.1c1.4,0.1,2.5,0.1,3.4,0.1c0.8-0.1,1.5-0.2,1.9-0.5c0.4-0.3,0.7-0.6,0.8-1
			c0.1-0.4,0.2-0.9,0.2-1.5V17h-12.3c-0.4,0-0.8-0.2-1-0.7c-0.2-0.5-0.4-1-0.4-1.6c0-0.6,0.1-1.1,0.4-1.6c0.2-0.5,0.6-0.7,1-0.7
			h24.7c0.4,0,0.8,0.2,1,0.7c0.2,0.5,0.3,1,0.3,1.6c0,0.6-0.1,1.1-0.3,1.6c-0.2,0.5-0.5,0.7-1,0.7h-7.8v27.5c0,1.1-0.1,2.1-0.4,2.9
			c-0.3,0.8-0.8,1.5-1.5,2c-0.7,0.5-1.8,0.9-3.1,1.1c-1.3,0.2-3,0.3-5.1,0.2l-1.8-0.1c-0.5,0-0.9-0.3-1.2-0.8
			c-0.3-0.5-0.5-1-0.7-1.6c-0.1-0.6-0.1-1.1,0-1.6c0.1-0.5,0.4-0.7,0.9-0.7L170.6,46.1z"/>
		<path class="st0" d="M232.3,34.7c0,1-0.1,1.9-0.4,2.6c-0.2,0.7-0.6,1.3-1.1,1.8c-0.5,0.5-1.3,0.8-2.2,1c-0.9,0.2-2.2,0.2-3.7,0.1
			l-1.2,0c-0.4,0-0.8-0.3-1-0.7c-0.3-0.4-0.5-0.9-0.6-1.4s-0.1-1,0-1.4c0.1-0.4,0.4-0.6,0.8-0.5l1.1,0.1c1,0.1,1.7,0.2,2.3,0.1
			c0.5,0,1-0.2,1.2-0.4c0.3-0.2,0.5-0.5,0.5-0.9c0.1-0.4,0.1-0.8,0.2-1.4l0-3.6c0-0.7,0-1.1-0.1-1.2c-0.1-0.1-0.5-0.2-1.2-0.2h-5.6
			c-0.7,0-1.2,0.1-1.3,0.2s-0.2,0.6-0.2,1.3v12.5c0,1.4,0.2,2.4,0.7,2.9c0.4,0.5,1.3,0.8,2.7,0.8h5c0.7,0,1.3-0.1,1.7-0.2
			c0.4-0.1,0.8-0.3,1-0.7c0.3-0.3,0.4-0.8,0.5-1.4c0.1-0.6,0.2-1.5,0.3-2.5c0-0.4,0.2-0.7,0.7-0.8c0.4-0.1,0.9-0.1,1.4,0
			c0.5,0.1,0.9,0.3,1.3,0.6c0.4,0.3,0.6,0.6,0.6,1c-0.2,1.7-0.4,3.1-0.7,4.1c-0.3,1-0.7,1.8-1.2,2.4c-0.5,0.5-1.2,0.9-2,1.1
			c-0.8,0.2-1.8,0.3-3.1,0.3h-6.8c-1,0-1.9-0.1-2.7-0.3c-0.8-0.2-1.4-0.5-1.9-1c-0.5-0.5-0.9-1.1-1.1-1.9c-0.3-0.8-0.4-1.8-0.4-3
			V29.3c0-0.7,0-1.2,0.1-1.7c0.1-0.5,0.2-0.9,0.4-1.2c-0.3,0.3-0.7,0.7-1,1c-0.3,0.3-0.7,0.6-1,0.9c-0.2,0.2-0.4,0.2-0.6,0.2
			c-0.2,0-0.4-0.1-0.6-0.3c-0.2-0.2-0.4-0.4-0.5-0.6c-0.2-0.3-0.3-0.5-0.4-0.8v19.1c0,0.9-0.1,1.7-0.3,2.4c-0.2,0.7-0.6,1.2-1.2,1.6
			c-0.6,0.4-1.3,0.7-2.3,0.8c-1,0.1-2.2,0.2-3.7,0.1l-1.1-0.1c-0.4,0-0.8-0.2-1-0.7c-0.3-0.4-0.5-0.9-0.6-1.4c-0.1-0.5-0.1-1,0-1.4
			c0.1-0.4,0.4-0.6,0.8-0.6l1.1,0.1c1,0.1,1.7,0.2,2.3,0.1c0.6-0.1,1-0.2,1.3-0.4c0.3-0.2,0.5-0.5,0.6-0.8c0.1-0.3,0.1-0.7,0.1-1
			V32.2h-6.7c0,2.7-0.1,5-0.3,6.8c-0.1,1.9-0.4,3.5-0.6,4.8c-0.3,1.4-0.6,2.6-1.1,3.6c-0.4,1.1-0.9,2.1-1.5,3.2
			c-0.2,0.4-0.5,0.5-1,0.5c-0.5,0-1-0.2-1.5-0.4c-0.5-0.2-0.9-0.5-1.2-0.9c-0.3-0.4-0.4-0.8-0.2-1.1c0.6-1.1,1.1-2.1,1.5-3.1
			c0.4-1,0.7-2.1,1-3.3c0.3-1.2,0.5-2.6,0.6-4.2c0.1-1.6,0.2-3.6,0.2-6h-2.5c-0.4,0-0.7-0.2-0.8-0.6c-0.2-0.4-0.3-0.8-0.3-1.3
			c0-0.5,0.1-0.9,0.3-1.3c0.2-0.4,0.5-0.6,0.8-0.6h2.6V17.5c0-0.8,0.1-1.5,0.2-2.1c0.1-0.5,0.3-1,0.7-1.3c0.3-0.3,0.7-0.5,1.3-0.7
			c0.5-0.1,1.2-0.2,2.1-0.2h0.1c0.2-0.7,0.4-1.3,0.6-1.9c0.2-0.6,0.3-1.2,0.4-1.6c0.1-0.4,0.4-0.7,0.8-0.8c0.5-0.1,0.9-0.2,1.5-0.1
			c0.5,0.1,1,0.2,1.3,0.5c0.4,0.3,0.5,0.6,0.4,0.9c-0.1,0.4-0.2,0.8-0.3,1.4c-0.1,0.5-0.3,1.1-0.5,1.6h1.7c0.8,0,1.5,0.1,2.1,0.2
			c0.5,0.1,1,0.3,1.3,0.7c0.3,0.3,0.5,0.7,0.7,1.3c0.1,0.5,0.2,1.2,0.2,2.1v6.8c0-0.1,0.1-0.2,0.2-0.3c1-0.8,1.9-1.8,2.9-2.8
			c1-1.1,1.9-2.2,2.8-3.5c0.9-1.2,1.7-2.5,2.4-3.8c0.8-1.3,1.4-2.6,1.9-4c0.1-0.3,0.4-0.5,0.8-0.7c0.4-0.2,0.8-0.2,1.3-0.2
			s0.9,0.1,1.3,0.2c0.4,0.2,0.7,0.4,0.8,0.8c0.5,1.3,1.2,2.6,2,4c0.8,1.4,1.7,2.7,2.7,4c1,1.3,2,2.5,3.1,3.7
			c1.1,1.1,2.1,2.1,3.2,2.9c0.3,0.3,0.5,0.6,0.4,1.1c-0.1,0.5-0.3,1-0.6,1.4c-0.3,0.5-0.7,0.8-1.1,1s-0.8,0.2-1.2-0.1
			c-1.1-0.9-2.1-1.8-3.1-2.9c-1-1-1.9-2.1-2.8-3.2c-0.9-1.1-1.7-2.2-2.4-3.3c-0.7-1.1-1.3-2.1-1.7-3.1c-0.3-0.5-0.4-0.8-0.5-0.8
			c-0.1,0-0.2,0.3-0.5,0.8c-0.7,1.5-1.7,3.1-2.8,4.8c-1.2,1.7-2.5,3.3-4,4.9c0.7-0.3,1.7-0.5,3.2-0.5h7.6c0.8,0,1.5,0.1,2.1,0.2
			c0.5,0.1,1,0.3,1.3,0.7c0.3,0.3,0.5,0.7,0.6,1.3c0.1,0.5,0.1,1.2,0.1,2.1V34.7z M201.8,28.5h6.7v-9.9c0-0.7-0.1-1.1-0.2-1.2
			c-0.1-0.1-0.5-0.2-1.2-0.2h-4c-0.7,0-1.1,0.1-1.2,0.2c-0.1,0.1-0.2,0.5-0.2,1.2V28.5z M205,26.1c-0.3-0.9-0.6-1.8-1-2.8
			c-0.4-1-0.9-1.9-1.3-2.8c-0.1-0.2,0-0.4,0.2-0.7c0.2-0.2,0.5-0.4,0.8-0.5c0.3-0.1,0.7-0.2,1-0.2c0.3,0,0.5,0.1,0.6,0.4
			c0.4,0.8,0.9,1.7,1.3,2.8c0.4,1,0.8,2,1,2.8c0.1,0.3,0,0.5-0.2,0.7c-0.2,0.2-0.5,0.4-0.8,0.5c-0.3,0.1-0.7,0.2-1,0.2
			C205.3,26.5,205.1,26.4,205,26.1z"/>
	</g>
	<g>
		<path class="st0" d="M103.7,68.3c-0.2,0-0.4-0.1-0.6-0.2c-0.2-0.2-0.2-0.4-0.2-0.6v-0.4c0-0.2,0.1-0.4,0.2-0.6
			c0.2-0.2,0.4-0.2,0.6-0.2h1.3c0.1,0,0.1,0,0.1-0.1v-5.9c0-0.1,0-0.1-0.1-0.1h-1.1c-0.2,0-0.4-0.1-0.6-0.2
			c-0.2-0.2-0.2-0.3-0.2-0.6c0-0.2,0.1-0.4,0.2-0.6c0.1-0.2,0.3-0.3,0.6-0.4c0.4-0.1,0.8-0.2,1.2-0.4c0.6-0.3,1.1-0.4,1.6-0.4h0.2
			c0.2,0,0.4,0.1,0.6,0.2c0.2,0.2,0.2,0.4,0.2,0.6v7.7c0,0.1,0,0.1,0.1,0.1h1c0.2,0,0.4,0.1,0.6,0.2c0.2,0.2,0.2,0.4,0.2,0.6v0.4
			c0,0.2-0.1,0.4-0.2,0.6c-0.2,0.2-0.4,0.2-0.6,0.2H103.7z"/>
		<path class="st0" d="M124.4,67.5c0,0.2-0.1,0.4-0.3,0.6c-0.2,0.2-0.4,0.2-0.6,0.2h-0.9c-0.2,0-0.4-0.1-0.6-0.3
			c-0.1-0.1-0.2-0.3-0.2-0.5c0-1.3,0.3-2.7,0.8-4.2c0.4-1.2,1-2.3,1.9-3.6c0,0,0,0,0-0.1c0,0,0,0-0.1,0h-3.7c-0.2,0-0.4-0.1-0.6-0.2
			c-0.2-0.2-0.2-0.4-0.2-0.6v-0.5c0-0.2,0.1-0.4,0.2-0.6c0.2-0.2,0.4-0.2,0.6-0.2h5.8c0.2,0,0.4,0.1,0.6,0.2
			c0.2,0.2,0.2,0.3,0.2,0.5c0,0.5-0.2,1-0.5,1.4c-0.5,0.6-0.9,1.2-1.2,1.7c-0.3,0.6-0.5,1.2-0.7,1.8c-0.2,0.6-0.3,1.3-0.4,1.9
			C124.5,65.8,124.5,66.6,124.4,67.5z"/>
		<path class="st0" d="M140.7,68.5c-1,0-1.9-0.4-2.5-1.2c-0.6-0.8-0.9-1.8-0.9-3.2c0-0.6,0.1-1.3,0.3-1.8c0.2-0.6,0.4-1,0.8-1.4
			c0.3-0.4,0.7-0.6,1.1-0.8c0.4-0.2,0.8-0.3,1.3-0.3c0.4,0,0.8,0.1,1,0.2c0.3,0.1,0.6,0.3,0.9,0.6c0,0,0,0,0,0c0,0,0,0,0,0l-0.1-1.1
			v-1.9c0-0.2,0.1-0.4,0.2-0.6c0.2-0.2,0.4-0.2,0.6-0.2h0.9c0.2,0,0.4,0.1,0.6,0.2c0.2,0.2,0.2,0.4,0.2,0.6v9.9
			c0,0.2-0.1,0.4-0.2,0.6c-0.2,0.2-0.4,0.2-0.6,0.2h-0.5c-0.2,0-0.4-0.1-0.6-0.2c-0.2-0.1-0.3-0.3-0.3-0.5l0-0.1c0,0,0,0,0,0
			c0,0,0,0,0,0c-0.3,0.3-0.6,0.5-1,0.7C141.4,68.5,141,68.5,140.7,68.5z M141.4,66.4c0.5,0,0.9-0.2,1.2-0.6c0-0.1,0.1-0.1,0.1-0.2
			v-3c0-0.1,0-0.1-0.1-0.2c-0.3-0.3-0.7-0.4-1.2-0.4c-0.4,0-0.7,0.2-1,0.6c-0.3,0.4-0.4,0.9-0.4,1.6
			C139.9,65.7,140.4,66.4,141.4,66.4z"/>
		<path class="st0" d="M159.5,68.5c-1.2,0-2.2-0.4-2.9-1.2c-0.8-0.8-1.2-1.8-1.2-3.2c0-0.9,0.2-1.6,0.6-2.3c0.4-0.7,0.9-1.2,1.6-1.5
			c0.6-0.3,1.4-0.5,2.1-0.5c0.6,0,1.2,0.1,1.7,0.4c0.2,0.1,0.3,0.3,0.4,0.5c0,0,0,0.1,0,0.1c0,0.2-0.1,0.3-0.2,0.5l-0.2,0.3
			c-0.2,0.2-0.4,0.3-0.7,0.3c-0.2,0-0.3,0-0.5-0.1c-0.1,0-0.2,0-0.3,0c-0.6,0-1,0.2-1.3,0.6c-0.3,0.4-0.5,1-0.5,1.6
			c0,0.7,0.2,1.2,0.5,1.6c0.3,0.4,0.7,0.6,1.3,0.6c0.2,0,0.5-0.1,0.7-0.2c0.1-0.1,0.3-0.1,0.4-0.1c0.1,0,0.2,0,0.2,0
			c0.2,0,0.4,0.2,0.5,0.4l0.2,0.3c0.1,0.2,0.1,0.3,0.1,0.5c0,0.1,0,0.1,0,0.2c0,0.2-0.2,0.4-0.4,0.5C161,68.4,160.3,68.5,159.5,68.5
			z"/>
		<path class="st0" d="M173.8,68.5c-0.4,0-0.8-0.2-1.1-0.5c-0.3-0.3-0.4-0.7-0.4-1.1c0-0.5,0.1-0.8,0.4-1.1c0.3-0.3,0.7-0.5,1.1-0.5
			c0.4,0,0.8,0.2,1.1,0.5c0.3,0.3,0.4,0.7,0.4,1.1c0,0.5-0.1,0.8-0.4,1.1C174.7,68.4,174.3,68.5,173.8,68.5z"/>
		<path class="st0" d="M189.7,68.5c-1.2,0-2.2-0.4-2.9-1.2c-0.8-0.8-1.2-1.8-1.2-3.2c0-0.9,0.2-1.6,0.6-2.3c0.4-0.7,0.9-1.2,1.6-1.5
			c0.6-0.3,1.4-0.5,2.1-0.5c0.6,0,1.2,0.1,1.7,0.4c0.2,0.1,0.3,0.3,0.4,0.5c0,0,0,0.1,0,0.1c0,0.2-0.1,0.3-0.2,0.5l-0.2,0.3
			c-0.2,0.2-0.4,0.3-0.7,0.3c-0.2,0-0.3,0-0.5-0.1c-0.1,0-0.2,0-0.3,0c-0.6,0-1,0.2-1.3,0.6c-0.3,0.4-0.5,1-0.5,1.6
			c0,0.7,0.2,1.2,0.5,1.6c0.3,0.4,0.7,0.6,1.3,0.6c0.2,0,0.5-0.1,0.7-0.2c0.1-0.1,0.3-0.1,0.4-0.1c0.1,0,0.2,0,0.2,0
			c0.2,0,0.4,0.2,0.5,0.4l0.2,0.3c0.1,0.2,0.1,0.3,0.1,0.5c0,0.1,0,0.1,0,0.2c0,0.2-0.2,0.4-0.4,0.5
			C191.1,68.4,190.5,68.5,189.7,68.5z"/>
		<path class="st0" d="M205.7,68.5c-0.5,0-1-0.1-1.5-0.3c-0.5-0.2-0.9-0.5-1.3-0.8c-0.4-0.4-0.7-0.8-0.9-1.4
			c-0.2-0.6-0.3-1.2-0.3-1.8s0.1-1.3,0.3-1.8c0.2-0.6,0.5-1,0.9-1.4c0.4-0.4,0.8-0.6,1.3-0.8c0.5-0.2,1-0.3,1.5-0.3
			c0.5,0,1,0.1,1.5,0.3s0.9,0.5,1.3,0.8c0.4,0.4,0.7,0.8,0.9,1.4c0.2,0.6,0.3,1.2,0.3,1.8s-0.1,1.3-0.3,1.8c-0.2,0.6-0.5,1-0.9,1.4
			c-0.4,0.4-0.8,0.6-1.3,0.8C206.7,68.4,206.2,68.5,205.7,68.5z M205.7,66.5c0.5,0,0.8-0.2,1-0.6c0.2-0.4,0.3-0.9,0.3-1.6
			c0-0.7-0.1-1.3-0.3-1.7c-0.2-0.4-0.6-0.6-1-0.6c-0.5,0-0.8,0.2-1.1,0.6c-0.2,0.4-0.4,0.9-0.4,1.7c0,0.7,0.1,1.3,0.4,1.6
			C204.8,66.3,205.2,66.5,205.7,66.5z"/>
		<path class="st0" d="M220.8,68.3c-0.2,0-0.4-0.1-0.6-0.2c-0.2-0.2-0.2-0.4-0.2-0.6v-6.6c0-0.2,0.1-0.4,0.2-0.6
			c0.2-0.2,0.4-0.2,0.6-0.2h0.4c0.2,0,0.5,0.1,0.6,0.2c0.2,0.2,0.3,0.4,0.3,0.6l0,0.2c0,0,0,0,0,0s0,0,0,0c0.4-0.4,0.8-0.7,1.2-0.9
			c0.4-0.2,0.8-0.3,1.3-0.3c1,0,1.8,0.4,2.2,1.3c0,0.1,0.1,0.1,0.1,0c0.4-0.4,0.8-0.7,1.2-0.9c0.4-0.2,0.8-0.3,1.3-0.3
			c0.9,0,1.5,0.3,1.9,0.9c0.4,0.6,0.6,1.4,0.6,2.5v4.3c0,0.2-0.1,0.4-0.2,0.6c-0.2,0.2-0.4,0.2-0.6,0.2h-0.9c-0.2,0-0.4-0.1-0.6-0.2
			c-0.2-0.2-0.2-0.4-0.2-0.6v-3.9c0-0.5-0.1-0.9-0.2-1.1c-0.1-0.2-0.4-0.3-0.7-0.3c-0.4,0-0.8,0.2-1.2,0.7c0,0-0.1,0.1-0.1,0.2v4.6
			c0,0.2-0.1,0.4-0.2,0.6c-0.2,0.2-0.4,0.2-0.6,0.2h-0.9c-0.2,0-0.4-0.1-0.6-0.2c-0.2-0.2-0.2-0.4-0.2-0.6v-3.9
			c0-0.5-0.1-0.9-0.2-1.1c-0.1-0.2-0.4-0.3-0.7-0.3c-0.4,0-0.8,0.2-1.2,0.7c0,0-0.1,0.1-0.1,0.2v4.6c0,0.2-0.1,0.4-0.2,0.6
			c-0.2,0.2-0.4,0.2-0.6,0.2H220.8z"/>
	</g>
	<polygon class="st1" points="31.2,20.3 12.5,20.3 18.7,1.5 37.4,1.5 	"/>
	<path class="st2" d="M49.7,66.3h18.7l15-45.9l1.3-4l0,0C87,9,81.6,1.5,73.8,1.5H43.4l-6.2,18.9h27.4L49.7,66.3z"/>
	<polygon class="st2" points="44.3,66.3 57.1,27 35,27 22.2,66.3 	"/>
	<path class="st1" d="M16.2,66.3L29,27H10.3L2.4,51.3C0,58.7,5.5,66.3,13.2,66.3H16.2z"/>
	<path class="st0" d="M206,42.3c-0.3,0.3-0.6,0.4-1,0.4c-0.4,0-0.7-0.1-1-0.4c-0.3-0.3-0.4-0.6-0.4-1v-6.3c0-0.4,0.1-0.7,0.4-1
		c0.3-0.3,0.6-0.4,1-0.4c0.4,0,0.7,0.1,1,0.4c0.3,0.3,0.4,0.6,0.4,1v6.3C206.5,41.7,206.3,42.1,206,42.3z"/>
</g>
</svg>
